/* XPM */
static char *c71d4fa210d649f8af286dd6ee4c5d788ff6oaNiiwaA4Nb9[] = {
/* columns rows colors chars-per-pixel */
"32 32 52 1 ",
"  c #2B1836",
". c #2C1936",
"X c #2C1937",
"o c #2E1938",
"O c #311B3B",
"+ c #311C3D",
"@ c #321C3E",
"# c #2E2235",
"$ c #2F2437",
"% c #33273A",
"& c #362A3E",
"* c #361F41",
"= c #361F42",
"- c #362042",
"; c #382B40",
": c #3C2E45",
"> c #3B2248",
", c #3D244A",
"< c #3D244B",
"1 c #40264D",
"2 c #413546",
"3 c #43334C",
"4 c #45354E",
"5 c #463B4C",
"6 c #473C4D",
"7 c #473751",
"8 c #4C3F53",
"9 c #4E4154",
"0 c #4E4155",
"q c #55465B",
"w c #55475C",
"e c #5A4C63",
"r c #5B4D63",
"t c #5C4C63",
"y c #5F4F66",
"u c #5F4F67",
"i c #5B4B6E",
"p c #5E4E71",
"a c #62526A",
"s c #604F72",
"d c #645376",
"f c #6A577A",
"g c #6B597B",
"h c #6C5A7C",
"j c #6D5A7D",
"k c #6D5B7D",
"l c #746082",
"z c #766284",
"x c #7D688A",
"c c #7E698B",
"v c #836C90",
"b c #877193",
/* pixels */
"1b1111111111111111111111111117b1",
"1bb1bbbbbb1bbbbbb1aaaaaaa1bbbbb1",
"1ba1aaaaaa1aaaaaa1aaaaaaa1aaabb1",
"1b71aaaaaa17777771aaaaaaa17777b1",
"11111111111111111111111111111711",
"1bbbbbb1aaaaaa1bbbbbb1aaaaaa1bb1",
"1baaaaa1aaaaaa1aaaaaa1aaaaaa1ab1",
"1b777771aaaaaa1aaaaaa177777717b1",
"11111111111111111111111111111711",
"1bb1bbbbbb1bbbbbb1aaaaaaa1bbbbb1",
"1ba1aaaaaa1aaaaaa1aaaaaaa1aaabb1",
"1b71aaaaaa17777741aaaaaaa17777b1",
"11111111111111111111111111111711",
"1bbbbbb1aaaaaa1bbbbbb1aaaaaa1bb1",
"<vuuuuu<uuuuuu<uuuauu<uuuuuu<uv<",
"<v44444<uuuuuu<uuuuuu<uuuuuu<4v<",
"<<<<<<<<<<<<<<<><<<<<<<<<<><>4<<",
">xx>xxxxcc>rrrree>xxxxxxx>tvxxv>",
">xe>teyerr>rrreue>ueyeett>ywexx>",
">xu>443333>rrrrre>3333344>eyeex>",
"--------=-------%*-==>--****%:**",
"-zzwqqq-zzzzzz-zzzzzz=qwwqqq-zz*",
"-zzwwwq-qwwwww-wqwqqq=qwqqww*lz*",
"+k&&;&&+000000+;&&;;&@990888@8j@",
"++++++++++++++++++++++++@@++O&o+",
"+kj+jjjjkk+000009+jjjjjjj@hgggj+",
".d6.666655o566666.6666665o555ddo",
".%%.%%%%%%X566666O%%%%%%% %%%5do",
"X o..O..XXXX o o..o........  #oo",
"iiiiiii#iiiiii#iiiiii#iiiiiiiipp",
"i222222#222222#222222#2222222:3p",
"i#########################$$$##p"
};
