/* XPM */
static char *result[] = {
/* columns rows colors chars-per-pixel */
"32 32 10 1 ",
"  c black",
". c #211412",
"X c #3F2C29",
"o c #0B5931",
"O c #7C421C",
"+ c #B57521",
"@ c #2F8735",
"# c #E7B233",
"$ c #9BF046",
"% c None",
/* pixels */
"%%%%%%%%%%%%%%%%%%%%  %%%%%%%%%%",
"%%%ooo%%%%%%%%%%%%% OO %%%%%%%%%",
"%%o@@@o%%%%%  %%%%% OO %%%%%%%%%",
"%%%o@@o%%%% O %%%%  O+ %%%%%%%%%",
"%%%%ooo%%% OO       O+ %%%%%%%%%",
"%%%%%%% % OOOO+OOOO+O+ %%%%%%%%%",
"%%%%ooo%  OO+O+OO.O+OO %%%%%%%%%",
"%%%o@@o%% OO+OO.....OO %%%%%%%%%",
"%%%%oo%%% OOOO.$$.$$O+ %%%%%%%%%",
"%%%%%%%%  O+OO...O..O+  %%%%%%%%",
"%%%%%%% # O+OOO+OOOOO+ # %%%%%%%",
"%%%%%% ###            ### %%%%%%",
"%%%%%%  ################  %%%%%%",
"%%%    O                O    %%%",
"%% OOO +O+OO+OOOOO+OO+O+O OOO %%",
"%% OOO +OOOOOOOOOO+OOOO+O OOO %%",
"%% OOO +O+OO+OO+OO+OOOOOO OOO %%",
"%% OOO OO+OO+OO+OOOOO+OOO OOO %%",
"%% OOO OO+OO+OO+OO+OO+O+O OOO %%",
"%% OOO +O+OOOOOOOO+OOOO+O OOO %%",
"%% OOO +OOOOOOOOOXXXXXO+O OOO %%",
"%% OOO +OOOOOXXXX     XOO OOO %%",
"%% OOO XXXXXX    OOOOO OO OOO %%",
"%% OOO       OOOOOOOOO +O OOO %%",
"%% OOO OOOOOOOOOOOOOOO +O OOO %%",
"%%%               OOOO OO    %%%",
"%%%%%% OOOOO+OO+OO    O+O %%%%%%",
"%%%%%%% O+OO+OO+OO+OO+OO %%%%%%%",
"%%%%%%%%                %%%%%%%%",
"%%%%%%%%% OOO %%%% OOO %%%%%%%%%",
"%%%%%%%%% OOO %%%% OOO %%%%%%%%%",
"%%%%%%%%% OOOO %%% OOOO %%%%%%%%"
};
