/* XPM */
static char *result[] = {
/* columns rows colors chars-per-pixel */
"32 32 3 1 ",
"  c #F02929",
". c #FFFF37",
"X c None",
/* pixels */
"XXXXXXXX.XXXXXX.XXXXX.XXXXXXXXXX",
"XXXXXXXX..XXXX..XXXX..XXXXXXXXXX",
"XXXXXXX. ..XX. ..X..  .XXXXXXXXX",
"XXXXXXX.  ....  ...  ..XXXXXXXXX",
"XXXXXXX.   ..   ..   .XXXXXXXXXX",
"XXXXXXX..  .  ..    . .XXXXXXXXX",
"XXXXXXX..  .   .    . .XXXXXXXXX",
"XXXXXXXX.  .    .     .XXXXXXXXX",
"XXXXXXXX.  .          .XXXXXXXXX",
"XX...XXX. .    ... ....XXX...XXX",
"X.   .XX. .    ... ....XX. . .XX",
"X.   .XX.             .XX..   .X",
"X..  .XX.             .XX.  . .X",
"X. . .XXX.............XXX. . .XX",
"X. .  ....           ....    .XX",
"X.  .   .   .    .    .   .  .XX",
"X.   . .     .  .      ...   .XX",
"X.           .  .            .XX",
"XX. . ....   .   .   ...  ...XXX",
"XXX.X.XXX.. .    .  ..XX..XXXXXX",
"XXXXXXXXXX. .   .   .XXXXXXXXXXX",
"XXXXXXXXX..    .    .XXXXXXXXXXX",
"XXXXXXXXX..       . .XXXXXXXXXXX",
"XXXXXXXXXX. .     . ..XXXXXXXXXX",
"XXXXXXXXXX. .    .    .XXXXXXXXX",
"XXXXXXX....  .   .    ..XXXXXXXX",
"XXXXXX.      . X... . ..XXXXXXXX",
"XXXXXX.....   .XXX. . .XXXXXXXXX",
"XXXXXX..   . .XXXX.  ..XXXXXXXXX",
"XXXXXXX......XXXXX.  ..XXXXXXXXX",
"XXXXXXXXXXXXXXXXXXX...XXXXXXXXXX",
"XXXXXXXXXXXXXXXXXXXXXXXXXXXXXXXX"
};
