/* XPM */
static char *result[] = {
/* columns rows colors chars-per-pixel */
"32 32 10 1 ",
"  c black",
". c #6D0750",
"X c #F02929",
"o c #F66D1E",
"O c #AD0B6F",
"+ c #EB3C96",
"@ c #FF70DF",
"# c #FECD8E",
"$ c #EBFF8B",
"% c None",
/* pixels */
"%%%%%%%%%%%%%%%%%%%%%%%%%%%%%%%%",
"%%%%%%%%%%%%%%%%%%%%%%%%%%%%%%%%",
"%%%%%%%%%%%%%%%%%%%%%%%%%%%%%%%%",
"%%%%%%%%%%%%%%%%%%%%            ",
"%%%%%%%%%%%%%%%%%%% @@@@@@$$$$$ ",
"            %%%%%%% @@@@@@@$$$$ ",
" $$$$$@@@@@@ %%%%%% @@@@@@$$$$$ ",
" $$$$@@@@@@          @@@@@@$$$$ ",
" $$$$$@@@@ .......... @@@      %",
" $$$$@@@@@ .......... @@@@$$$ %%",
"%      @@@ .########. @@@$$$$ %%",
"%% $$$@@@@ ########## @@@@$$$ %%",
"%% $$$$@@@ #   ##   # @@@    %%%",
"%% $$$@@@@ ########## @@ %%%%%%%",
"%%%    @@@ ####XX#### @@ %%%%%%%",
"%%%%%%% @@@##########@@@ %%%%%%%",
"%%%%%%% @@@@@@@@@@@@@@@@ %%%%%%%",
"%%%%%%% @@@@@@+@@@+@@@@ %%%%%%%%",
"%%%%%%% @@@@@@@+@@@+@@ %%%%%%%%%",
"%%%%%%%% @ @@@@+@@@+@ %%%%%%%%%%",
"%%%%%%%%% @@@@+@@@+@@ %%%%%%%%%%",
"%%%%%%%%%% @@@@@@@@@@ %%%%%%%%%%",
"%%%%%%%%%  @@@@@@@@@@O %%%%%%%%%",
"%%%%%%%% @ @@@@@@@@@Ooo %   %%%%",
"%%%%%%  @@ OO         oo ooo %%%",
"%%    @@@@ oo %   %%%% ooo  %%%%",
"% $@$@@@@@ ooo ooo %%%% o %%%%%%",
" $$$@$@@@@@ oooo  %%%%%% o  %%%%",
"% $$$@$@@@@@ oo %%%%%%%% ooo %%%",
"%% $$$@$@@@ % oo  %%%%%%%   %%%%",
"%%% $$$@$@ %%% ooo %%%%%%%%%%%%%",
"%%%%      %%%%%   %%%%%%%%%%%%%%"
};
