/* XPM */
static char *result[] = {
/* columns rows colors chars-per-pixel */
"32 32 5 1 ",
"  c black",
". c #0B5931",
"X c #F02929",
"o c #2F8735",
"O c None",
/* pixels */
"OOOOOOOOOOOOOOOOOOOOOOOOOOOOOOOO",
"OOOOOOOOOOOOOO  O              O",
"OOOOOOOOOOOOO XX oooooooooooooo ",
"OOOOOOOOOOOOO X oo  ooooooooooo ",
"OOOOOOOOOOOOO X oo  ooooooooooo ",
"OOOOOOOOOOOOOO oooooooooooooooo ",
"OOOOOOOOOOO  O oooooooo o o o o ",
"OOOOOOOOOO XX oooooooo o o o o  ",
"OOOOOOOOOO X oooooooooooooooooo ",
"OOOOOOOOOOO ooooooooooooooooooo ",
"OOOOOOOOOOO ooooooooooo        O",
"OOOOOOOO O oooooooooooo OOOOOOOO",
"OOOOOOO X oooooooo   oo OOOOOOOO",
"OOOOOOO X ooooooo ooo    OOOOOOO",
"OOOOOOOO oooooooo ooooooo OOOOOO",
"OOOOO  O oooooooo ooooooo OOOOOO",
"OOOO XX        ooo       OOOOOOO",
"OOOO XX ooooooo ooo.... OOOOOOOO",
"OOOO X ooooooooo oooooo OOOOOOOO",
"OOOOO ooooooooooo ooooo OOOOOOOO",
"OOOOO ooooooooooo .oooo OOOOOOOO",
"OOOO  ooooooooooo .oooo OOOOOOOO",
"OOOO  ooooooooooo .oooo OOOOOOOO",
"OOO   ooooooooooo .oooo OOOOOOOO",
"OOO o ooooooooooo .oooo OOOOOOOO",
"OO oo ooooooooooo .oooo OOOOOOOO",
"O ooo ooooooooooo .oooo OOOOOOOO",
"O ooo ooooooooooo .oooo OOOOOOOO",
" oooo oooooooooo            OOOO",
" oooo oooooooooooooooooooooo OOO",
" ooooo ooooooooooooooooooooo OOO",
"        oooooooooooooooooooo OOO"
};
