/* XPM */
static char *result[] = {
/* columns rows colors chars-per-pixel */
"32 32 8 1 ",
"  c black",
". c #222034",
"X c #424465",
"o c #CC6C42",
"O c #626F8A",
"+ c #FECD8E",
"@ c white",
"# c None",
/* pixels */
"################################",
"################################",
"################################",
"################################",
"################################",
"################################",
"################################",
"################################",
"################################",
"###########      ###############",
"#########  @@@@@@  #############",
"######## @@@@@@@@@@ ############",
"######## @@@@@@@@@@@ ###########",
"####### @@@@@@@@@@@@@  #########",
"####### @@@@@@@...@@@@@  #######",
"####### @@@@@@@....@@@@@@ ######",
"######## @@@@@@@...@@@@@@@ #####",
"######## @@@@@@@@@@@  @@@   ####",
"#########  @@@@@@@@ O  @@   ####",
"######### O @@@@@@ O O      ####",
"########## O      OOOOOO   #####",
"########### OOOOOOOO      ######",
"############        ############",
"########### OOOOOO #############",
"########## OOOOOOO   ###########",
"######### OOOO O OOOO ##########",
"######### OOOOO O  OO ##########",
"######### OOOOO OOO  ###########",
"####   # OOOOO OOOOO ###########",
"##  ++o OOOOO XXXXOOO ##########",
"# ++o++o OOOOO  XXXO   #########",
" +o++o++ OOOOOOO.XXOOOO ########"
};
