/* XPM */
static char *result[] = {
/* columns rows colors chars-per-pixel */
"32 32 8 1 ",
"  c #222034",
". c #696A6A",
"X c #626F8A",
"o c #847E87",
"O c #5FCDE4",
"+ c #9DB3BF",
"@ c #CBDBFC",
"# c None",
/* pixels */
"################################",
"################################",
"#########            ###########",
"######## XX++++++++++ ##########",
"####### XX++++++++++++ #########",
"####### X+++++++++++++ #########",
"####### X+++X##+++X##+ #########",
"####### X+ +X###+X###+ #########",
"####### XX ++X##+X##++ #### ####",
"####### XX +++++++++++ ### @ ###",
"####### XX +++++++++++ ### @ ###",
"########  . ++++#+#++ #### @O ##",
"##########  ++++#+#++ #### @O ##",
"########### X+++++++X #### OO ##",
"########### +X+++++X+ ##### OO #",
"############         ###### @O #",
"############## ooo ######## @O #",
"########  #           #  ## @ ##",
"####### +X X+++++X++++ ++  OO ##",
"####### +X XXXX + XXXX X+ #  ###",
"####### ++X    +++    # X+ ++ ##",
"######## + X+++++X++++ # XXXX ##",
"######## X XXXXX+ XXXX ##    ###",
"####### ++.    +++    ##########",
"####### +X X+++++Xoooo #########",
"####### XX XXXX + XXXX #########",
"########  #    # #    ##########",
"########## X+ #### X+ ##########",
"########## X+ #### X+ ##########",
"########### X+ #### X+ #########",
"########### X+ #### X+ #########",
"########## X+ #### X+ ##########"
};
