/* XPM */
static char *result[] = {
/* columns rows colors chars-per-pixel */
"32 32 6 1 ",
"  c black",
". c #983420",
"X c #DA351B",
"o c #F66D1E",
"O c #FFFF37",
"+ c None",
/* pixels */
"++++++++++++++++++++++++++++++++",
"+++               ++++++++++++++",
"++ XoXoXoXoXoXoXoX +++++++++++++",
"+ XoXoXoXoXoXoXoXoo ++++++++++++",
" XoXoooooooooooooooo +++++++++++",
" oXooooooooooooooooo +++++++++++",
" XoooooOoooooooooooo +++++++++++",
" oXooooOoooooooooooo +++++++++++",
" XooooOOoooooooooooo +++++++++++",
" oXoooOoooOOOOOOoooo +++++++++++",
" XooooOooOOooooooooo +++++++++++",
" oXoooOooOoooOOOoooo +++++++++++",
" XooooOooOoooOOOoooo +++++++++++",
" oXooooooOoooOOOoooo +++++++++++",
" XoooooooOoooooooooo +++++++++++",
" oXooooooOoooooOOooo +++++++++++",
" XoooooooOOooOOOoooo +++++++++++",
" oXoooooooOOOOoooooo +++++++++++",
" Xoooooooooooooo.... +++++++++++",
" oXoooooooooooo.       +++++++++",
" Xoooooooooooo. ooooooo ++++++++",
" oXoooooooooo. ooooooooo +++++++",
" Xooooooo      o o o o o      ++",
" oXooooo ......ooooooooo ..... +",
"+ ooooo ..     oo o o oo     .. ",
"++ oooo . .....ooooooooo .... . ",
"+++     . .    oooo oooo    . . ",
"+++++++ . . . + ooooooo + . . . ",
"+++++++ . . . ++       ++ . . . ",
"+++++++ . . . ++   +   ++ . . . ",
"+++++++ . . . +++  +  +++ . . . ",
"+++++++ . . . ++++ + ++++ . . . "
};
