/* XPM */
static char *result[] = {
/* columns rows colors chars-per-pixel */
"32 32 3 1 ",
"  c black",
". c #F02929",
"X c None",
/* pixels */
"XXXXXXXXXXXXXXXXXXXXXXXXXXXXXXXX",
"XXXXXXXXXXXXXXXXXXXXXXXXXXXXXXXX",
"XXXXXXXXXXXXXXXXXXXXXXXXXXXXXXXX",
"XXXXXXXXXXXXXXXXXXXXXXXXXXXXXXXX",
"XX  XXXXXXXXXXXXXXXXXXXXXXXX  XX",
"XXX  XXXXXXXXXXXXXXXXXXXXXX  XXX",
"XXX   XXXXXXXXXXXXXXXXXXXX   XXX",
"XXX    XXXXXXXXXXXXXXXXXX    XXX",
"XXX     XXX XXXXXXXX XXX     XXX",
"XX       XX  XXXXXX  XX       XX",
"X         X          X         X",
"                                ",
"             ..   ..            ",
"   XXXXX                XXXXX   ",
"  XXXXXXX              XXXXXXX  ",
" XXXXXXXXXX          XXXXXXXXXX ",
"XXXXXXXXXXX        XXXXXXXXXXXXX",
"XXXXXXXXXX        XXXXXXXXXXXXXX",
"XXXXXXXXX        XXXXXXXXXXXXXXX",
"XXXXXXXXXXXXXXXXXXXXXXXXXXXXXXXX",
"XXXXXXXXXXXXXXXXXXXXXXXXXXXXXXXX",
"XXXXXXXXXXXXXXXXXXXXXXXXXXXXXXXX",
"XXXXXXXXXXXXXXXXXXXXXXXXXXXXXXXX",
"XXXXXXXXXXXXXXXXXXXXXXXXXXXXXXXX",
"XXXXXXXXXXXXXXXXXXXXXXXXXXXXXXXX",
"XXXXXXXXXXXXXXXXXXXXXXXXXXXXXXXX",
"XXXXXXXXXXXXXXXXXXXXXXXXXXXXXXXX",
"XXXXXXXXXXXXXXXXXXXXXXXXXXXXXXXX",
"XXXXXXXXXXXXXXXXXXXXXXXXXXXXXXXX",
"XXXXXXXXXXXXXXXXXXXXXXXXXXXXXXXX",
"XXXXXXXXXXXXXXXXXXXXXXXXXXXXXXXX",
"XXXXXXXXXXXXXXXXXXXXXXXXXXXXXXXX"
};
