/* XPM */
static char *result[] = {
/* columns rows colors chars-per-pixel */
"32 32 7 1 ",
"  c black",
". c #F02929",
"X c #E7B233",
"o c #FFFF37",
"O c #FFDE7C",
"+ c white",
"@ c None",
/* pixels */
"@@@@@@@@@@@@@@@@@@@@@@@@@@@@@@@@",
"@@@@@@@@@@@@@@@@@@@@@@@@@@@@@@@@",
"@@@@@@@@@@@@@@@@@@@@@@@@@@@@@@@@",
"@@@   @@@@@@@@@@@@@@@@@@@   @@@@",
"@@ . . @@@@   @@@@   @@@ . . @@@",
"@ .. .. @@ +o  @@ +o  @ .. .. @@",
" ... .. @@ oo  @@ oo  @ .. ... @",
" ... .. @@ ooo @@ ooo @ .. ... @",
" .. ... @@ oo @@@ oo @@ ... .. @",
" ..... @@@ o @@@@ o @@@@ ..... @",
" .... @@@@ o @@@@ o @@@@@ .... @",
" .... @@@@  @@@@@  @@@@@@ .... @",
"@ ... @@@@  @@@@@  @@@@@@ ... @@",
"@@ ... @               @ ... @@@",
"@@@ ... ............... ... @@@@",
"@@@@ ..................... @@@@@",
"@@@@@ ................... @@@@@@",
"@@@@@@ .....XXXXXXXXXXXX @@@@@@@",
"@@@@@@@ ...XOOOOOOOOOOOOX @@@@@@",
"@@@@@@@ ..XOOOOOOOOOOOOOX @@@@@@",
"@@@@@@@ .XOOOOOOOOOOOOOOX @@@@@@",
"@@@@@@@ .XOOOOOOOOOOOOOOX @@@@@@",
"@@@@@@@ .XOOOOOOOOOOOOOOX @@@@@@",
"@@@@@@@ .XOOOOOOOOOOOOOOX @@@@@@",
"@@@@@@ ..XXXXXXXXXXXXXXX @@@@@@@",
"@@@@@ ..   ..           . @@@@@@",
"@@@@ .. @@ .. @@@ .. @@ .. @@@@@",
"@@@ .. @@ .. @@@@@ .. @@ .. @@@@",
"@@ .. @@ .. @@@@@@@ .. @@ .. @@@",
"@@ . @@@ . @@@@@@@@@ . @@@ . @@@",
"@@  @@@@  @@@@@@@@@@@  @@@@  @@@",
"@@ @@@@@ @@@@@@@@@@@@@ @@@@@ @@@"
};
